<mxfile host="app.diagrams.net" agent="Mozilla/5.0 (Windows NT 10.0; Win64; x64) AppleWebKit/537.36 (KHTML, like Gecko) Chrome/135.0.0.0 Safari/537.36" version="27.0.6">
  <diagram name="Page-1" id="OFOnhctFp7M1CrrL2vQC">
    <mxGraphModel dx="898" dy="750" grid="1" gridSize="10" guides="1" tooltips="1" connect="1" arrows="1" fold="1" page="1" pageScale="1" pageWidth="827" pageHeight="1169" math="0" shadow="0">
      <root>
        <mxCell id="0" />
        <mxCell id="1" parent="0" />
        <mxCell id="1n6aaUzNF8a3s-r--wuR-1" value="" style="rounded=0;whiteSpace=wrap;html=1;" parent="1" vertex="1">
          <mxGeometry x="160" y="80" width="640" height="660" as="geometry" />
        </mxCell>
        <mxCell id="1n6aaUzNF8a3s-r--wuR-2" value="&lt;b&gt;&lt;font style=&quot;font-size: 14px; color: light-dark(rgb(255, 0, 0), rgb(237, 237, 237));&quot;&gt;Logiciel de réservation scolaire&lt;/font&gt;&lt;/b&gt;" style="text;html=1;align=center;verticalAlign=middle;whiteSpace=wrap;rounded=0;fillColor=#f8cecc;strokeColor=#b85450;" parent="1" vertex="1">
          <mxGeometry x="170" y="90" width="220" height="30" as="geometry" />
        </mxCell>
        <mxCell id="1n6aaUzNF8a3s-r--wuR-9" style="rounded=0;orthogonalLoop=1;jettySize=auto;html=1;entryX=0;entryY=0.5;entryDx=0;entryDy=0;endArrow=none;startFill=0;" parent="1" source="1n6aaUzNF8a3s-r--wuR-3" target="1n6aaUzNF8a3s-r--wuR-5" edge="1">
          <mxGeometry relative="1" as="geometry" />
        </mxCell>
        <mxCell id="1n6aaUzNF8a3s-r--wuR-11" style="rounded=0;orthogonalLoop=1;jettySize=auto;html=1;entryX=0;entryY=0.5;entryDx=0;entryDy=0;endArrow=none;startFill=0;" parent="1" source="1n6aaUzNF8a3s-r--wuR-3" target="1n6aaUzNF8a3s-r--wuR-7" edge="1">
          <mxGeometry relative="1" as="geometry" />
        </mxCell>
        <mxCell id="M8qjF7BodjmgCWxe7SJt-2" style="rounded=0;orthogonalLoop=1;jettySize=auto;html=1;endArrow=block;endFill=0;" parent="1" source="1n6aaUzNF8a3s-r--wuR-3" target="1n6aaUzNF8a3s-r--wuR-4" edge="1">
          <mxGeometry relative="1" as="geometry" />
        </mxCell>
        <mxCell id="1n6aaUzNF8a3s-r--wuR-3" value="Enseignant" style="shape=umlActor;verticalLabelPosition=bottom;verticalAlign=top;html=1;outlineConnect=0;" parent="1" vertex="1">
          <mxGeometry x="60" y="308" width="30" height="60" as="geometry" />
        </mxCell>
        <mxCell id="M8qjF7BodjmgCWxe7SJt-1" style="rounded=0;orthogonalLoop=1;jettySize=auto;html=1;entryX=0;entryY=0.5;entryDx=0;entryDy=0;endArrow=none;startFill=0;" parent="1" source="1n6aaUzNF8a3s-r--wuR-4" target="1n6aaUzNF8a3s-r--wuR-6" edge="1">
          <mxGeometry relative="1" as="geometry" />
        </mxCell>
        <mxCell id="1n6aaUzNF8a3s-r--wuR-4" value="Etudiant" style="shape=umlActor;verticalLabelPosition=bottom;verticalAlign=top;html=1;outlineConnect=0;" parent="1" vertex="1">
          <mxGeometry x="60" y="150" width="30" height="60" as="geometry" />
        </mxCell>
        <mxCell id="1n6aaUzNF8a3s-r--wuR-5" value="Effectuer des réservations" style="ellipse;whiteSpace=wrap;html=1;" parent="1" vertex="1">
          <mxGeometry x="210" y="250" width="140" height="70" as="geometry" />
        </mxCell>
        <mxCell id="1n6aaUzNF8a3s-r--wuR-6" value="Consulter planning des salles" style="ellipse;whiteSpace=wrap;html=1;" parent="1" vertex="1">
          <mxGeometry x="210" y="145" width="140" height="70" as="geometry" />
        </mxCell>
        <mxCell id="1n6aaUzNF8a3s-r--wuR-7" value="Consulter récapitulatif horaire" style="ellipse;whiteSpace=wrap;html=1;" parent="1" vertex="1">
          <mxGeometry x="210" y="350" width="140" height="70" as="geometry" />
        </mxCell>
        <mxCell id="1n6aaUzNF8a3s-r--wuR-8" value="Editer récapitulatif horaire" style="ellipse;whiteSpace=wrap;html=1;" parent="1" vertex="1">
          <mxGeometry x="210" y="446" width="140" height="70" as="geometry" />
        </mxCell>
        <mxCell id="ilsmXglXTkB7UpJdO46w-3" style="edgeStyle=orthogonalEdgeStyle;rounded=0;orthogonalLoop=1;jettySize=auto;html=1;entryX=1;entryY=0.5;entryDx=0;entryDy=0;endArrow=block;endFill=0;" parent="1" source="ilsmXglXTkB7UpJdO46w-1" target="1n6aaUzNF8a3s-r--wuR-5" edge="1">
          <mxGeometry relative="1" as="geometry" />
        </mxCell>
        <mxCell id="ilsmXglXTkB7UpJdO46w-1" value="Réservation de salle" style="ellipse;whiteSpace=wrap;html=1;" parent="1" vertex="1">
          <mxGeometry x="430" y="210" width="140" height="70" as="geometry" />
        </mxCell>
        <mxCell id="ilsmXglXTkB7UpJdO46w-11" style="edgeStyle=orthogonalEdgeStyle;rounded=0;orthogonalLoop=1;jettySize=auto;html=1;entryX=1;entryY=0.5;entryDx=0;entryDy=0;endArrow=block;endFill=0;" parent="1" source="ilsmXglXTkB7UpJdO46w-2" target="1n6aaUzNF8a3s-r--wuR-5" edge="1">
          <mxGeometry relative="1" as="geometry" />
        </mxCell>
        <mxCell id="ilsmXglXTkB7UpJdO46w-2" value="Réservation de matériel" style="ellipse;whiteSpace=wrap;html=1;" parent="1" vertex="1">
          <mxGeometry x="430" y="300" width="140" height="70" as="geometry" />
        </mxCell>
        <mxCell id="ilsmXglXTkB7UpJdO46w-6" style="edgeStyle=orthogonalEdgeStyle;rounded=0;orthogonalLoop=1;jettySize=auto;html=1;endArrow=block;endFill=0;" parent="1" source="ilsmXglXTkB7UpJdO46w-5" target="1n6aaUzNF8a3s-r--wuR-3" edge="1">
          <mxGeometry relative="1" as="geometry" />
        </mxCell>
        <mxCell id="ilsmXglXTkB7UpJdO46w-7" style="rounded=0;orthogonalLoop=1;jettySize=auto;html=1;entryX=0;entryY=0.5;entryDx=0;entryDy=0;endArrow=none;startFill=0;" parent="1" source="ilsmXglXTkB7UpJdO46w-5" target="1n6aaUzNF8a3s-r--wuR-8" edge="1">
          <mxGeometry relative="1" as="geometry" />
        </mxCell>
        <mxCell id="ilsmXglXTkB7UpJdO46w-5" value="Enseignant responsable" style="shape=umlActor;verticalLabelPosition=bottom;verticalAlign=top;html=1;" parent="1" vertex="1">
          <mxGeometry x="60" y="451" width="30" height="60" as="geometry" />
        </mxCell>
        <mxCell id="ilsmXglXTkB7UpJdO46w-8" value="Le système est soumis à l&#39;authentification." style="shape=note;whiteSpace=wrap;html=1;backgroundOutline=1;darkOpacity=0.05;fillColor=#dae8fc;strokeColor=#6c8ebf;" parent="1" vertex="1">
          <mxGeometry x="630" y="100" width="160" height="90" as="geometry" />
        </mxCell>
        <mxCell id="ilsmXglXTkB7UpJdO46w-12" style="edgeStyle=orthogonalEdgeStyle;rounded=0;orthogonalLoop=1;jettySize=auto;html=1;exitX=0.5;exitY=1;exitDx=0;exitDy=0;dashed=1;dashPattern=8 8;" parent="1" source="1n6aaUzNF8a3s-r--wuR-5" target="ilsmXglXTkB7UpJdO46w-9" edge="1">
          <mxGeometry relative="1" as="geometry">
            <Array as="points">
              <mxPoint x="280" y="340" />
              <mxPoint x="370" y="340" />
              <mxPoint x="370" y="455" />
            </Array>
          </mxGeometry>
        </mxCell>
        <mxCell id="ilsmXglXTkB7UpJdO46w-13" value="&lt;b&gt;&amp;lt;&amp;lt;includes&amp;gt;&amp;gt;&lt;/b&gt;" style="edgeLabel;html=1;align=center;verticalAlign=middle;resizable=0;points=[];" parent="ilsmXglXTkB7UpJdO46w-12" vertex="1" connectable="0">
          <mxGeometry x="-0.4456" y="-2" relative="1" as="geometry">
            <mxPoint as="offset" />
          </mxGeometry>
        </mxCell>
        <mxCell id="ilsmXglXTkB7UpJdO46w-9" value="Vérifier la disponibilité" style="ellipse;whiteSpace=wrap;html=1;" parent="1" vertex="1">
          <mxGeometry x="430" y="420" width="140" height="70" as="geometry" />
        </mxCell>
        <mxCell id="ilsmXglXTkB7UpJdO46w-16" style="edgeStyle=orthogonalEdgeStyle;rounded=0;orthogonalLoop=1;jettySize=auto;html=1;entryX=1;entryY=0.5;entryDx=0;entryDy=0;endArrow=block;endFill=0;" parent="1" source="ilsmXglXTkB7UpJdO46w-14" target="ilsmXglXTkB7UpJdO46w-2" edge="1">
          <mxGeometry relative="1" as="geometry" />
        </mxCell>
        <mxCell id="ilsmXglXTkB7UpJdO46w-14" value="Ordinateur portable" style="ellipse;whiteSpace=wrap;html=1;" parent="1" vertex="1">
          <mxGeometry x="640" y="260" width="140" height="70" as="geometry" />
        </mxCell>
        <mxCell id="ilsmXglXTkB7UpJdO46w-17" style="edgeStyle=orthogonalEdgeStyle;rounded=0;orthogonalLoop=1;jettySize=auto;html=1;entryX=1;entryY=0.5;entryDx=0;entryDy=0;endArrow=block;endFill=0;" parent="1" source="ilsmXglXTkB7UpJdO46w-15" target="ilsmXglXTkB7UpJdO46w-2" edge="1">
          <mxGeometry relative="1" as="geometry" />
        </mxCell>
        <mxCell id="ilsmXglXTkB7UpJdO46w-15" value="Vidéo projecteur" style="ellipse;whiteSpace=wrap;html=1;" parent="1" vertex="1">
          <mxGeometry x="640" y="340" width="140" height="70" as="geometry" />
        </mxCell>
        <mxCell id="09qUjX9F1Vz_cEnqoaQH-1" value="Récapitulatif horaire est calculé à partir du planning des salles" style="shape=note;whiteSpace=wrap;html=1;backgroundOutline=1;darkOpacity=0.05;fillColor=#dae8fc;strokeColor=#6c8ebf;" vertex="1" parent="1">
          <mxGeometry x="630" y="420" width="160" height="100" as="geometry" />
        </mxCell>
        <mxCell id="09qUjX9F1Vz_cEnqoaQH-5" style="rounded=0;orthogonalLoop=1;jettySize=auto;html=1;entryX=0;entryY=0.5;entryDx=0;entryDy=0;endArrow=none;startFill=0;" edge="1" parent="1" source="09qUjX9F1Vz_cEnqoaQH-2" target="09qUjX9F1Vz_cEnqoaQH-3">
          <mxGeometry relative="1" as="geometry" />
        </mxCell>
        <mxCell id="09qUjX9F1Vz_cEnqoaQH-6" style="rounded=0;orthogonalLoop=1;jettySize=auto;html=1;entryX=0;entryY=0.5;entryDx=0;entryDy=0;endArrow=none;startFill=0;" edge="1" parent="1" source="09qUjX9F1Vz_cEnqoaQH-2" target="09qUjX9F1Vz_cEnqoaQH-4">
          <mxGeometry relative="1" as="geometry" />
        </mxCell>
        <mxCell id="09qUjX9F1Vz_cEnqoaQH-2" value="Admin" style="shape=umlActor;verticalLabelPosition=bottom;verticalAlign=top;html=1;outlineConnect=0;" vertex="1" parent="1">
          <mxGeometry x="60" y="585" width="30" height="60" as="geometry" />
        </mxCell>
        <mxCell id="09qUjX9F1Vz_cEnqoaQH-3" value="Gérer les utilisateurs" style="ellipse;whiteSpace=wrap;html=1;" vertex="1" parent="1">
          <mxGeometry x="210" y="550" width="140" height="70" as="geometry" />
        </mxCell>
        <mxCell id="09qUjX9F1Vz_cEnqoaQH-4" value="Gérer les salles / matériels" style="ellipse;whiteSpace=wrap;html=1;" vertex="1" parent="1">
          <mxGeometry x="210" y="645" width="140" height="70" as="geometry" />
        </mxCell>
      </root>
    </mxGraphModel>
  </diagram>
</mxfile>
